<?xml version="1.0" encoding="UTF-8"?>
<svg id="Logo_oscuro" data-name="Logo oscuro" xmlns="http://www.w3.org/2000/svg" viewBox="0 0 565 96">
  <g>
    <path d="m334.22,47.58c0,3.6-.72,6.96-2.16,10.08-1.44,3.12-3.37,5.81-5.8,8.06-2.42,2.26-5.24,4.03-8.46,5.33-3.22,1.3-6.58,1.94-10.08,1.94s-6.94-.65-10.15-1.94c-3.22-1.3-6.04-3.07-8.46-5.33-2.42-2.26-4.36-4.94-5.8-8.06-1.44-3.12-2.16-6.48-2.16-10.08s.72-7.02,2.16-10.12c1.44-3.1,3.37-5.78,5.8-8.06,2.42-2.28,5.24-4.07,8.46-5.36,3.21-1.3,6.6-1.94,10.15-1.94s6.86.65,10.08,1.94c3.22,1.3,6.04,3.08,8.46,5.36,2.42,2.28,4.36,4.97,5.8,8.06,1.44,3.1,2.16,6.47,2.16,10.12Zm-25.2,6.55c0-1.49-.52-2.75-1.55-3.78-1.03-1.03-2.27-1.55-3.71-1.55s-2.75.52-3.78,1.55-1.55,2.29-1.55,3.78.52,2.68,1.55,3.71c1.03,1.03,2.29,1.55,3.78,1.55s2.68-.52,3.71-1.55,1.55-2.27,1.55-3.71Z"/>
    <path d="m377.78,55.36c0,2.74-.52,5.2-1.55,7.38-1.03,2.18-2.42,4.03-4.18,5.54-1.75,1.51-3.79,2.68-6.12,3.49-2.33.82-4.81,1.22-7.45,1.22s-5.05-.41-7.38-1.22c-2.33-.82-4.37-1.98-6.12-3.49-1.75-1.51-3.14-3.36-4.18-5.54-1.03-2.18-1.55-4.64-1.55-7.38,0-.77.02-1.72.07-2.84.05-1.13.12-2.29.22-3.49.1-1.2.24-2.35.43-3.46.19-1.1.43-2.02.72-2.74.67-1.78,1.56-3.18,2.66-4.21,1.1-1.03,2.66-1.55,4.68-1.55s3.52.52,4.64,1.55c1.13,1.03,2.03,2.44,2.7,4.21.19.58.37,1.32.54,2.23.17.91.3,1.86.4,2.84.1.98.17,1.94.22,2.88.05.94.07,1.72.07,2.34,0,.58.17,1.04.5,1.4.34.36.79.54,1.37.54.62,0,1.1-.18,1.44-.54.34-.36.5-.83.5-1.4,0-.62.02-1.4.07-2.34.05-.94.12-1.9.22-2.88.1-.98.22-1.93.36-2.84.14-.91.34-1.66.58-2.23.67-1.78,1.57-3.18,2.7-4.21,1.13-1.03,2.68-1.55,4.64-1.55s3.58.52,4.68,1.55c1.1,1.03,1.99,2.44,2.66,4.21.29.72.53,1.63.72,2.74.19,1.1.33,2.26.43,3.46.1,1.2.17,2.36.22,3.49.05,1.13.07,2.08.07,2.84Z"/>
    <path d="m421.13,64.58c0,1.87-.79,3.41-2.38,4.61-1.92,1.54-4.07,2.56-6.44,3.06s-4.74.76-7.09.76c-2.69,0-4.96-.49-6.8-1.48-1.85-.98-3.34-2.3-4.46-3.96-1.13-1.66-1.94-3.56-2.45-5.72-.5-2.16-.76-4.44-.76-6.84,0-.38.01-.74.04-1.08.02-.33.04-.67.04-1.01,0-.38-.22-.65-.65-.79-1.01-.24-2-.52-2.99-.83-.98-.31-1.86-.74-2.63-1.3-.77-.55-1.39-1.25-1.87-2.09-.48-.84-.72-1.91-.72-3.2,0-1.49.32-2.71.97-3.67.65-.96,1.49-1.72,2.52-2.27,1.03-.55,2.18-.96,3.46-1.22,1.27-.26,2.51-.44,3.71-.54.05-1.44.17-3.02.36-4.75.19-1.73.59-3.34,1.19-4.82.6-1.49,1.48-2.74,2.63-3.74,1.15-1.01,2.71-1.51,4.68-1.51s3.59.48,4.72,1.44c1.13.96,1.98,2.17,2.56,3.64.58,1.46.96,3.04,1.15,4.72.19,1.68.36,3.24.5,4.68,0,.24.1.38.29.43,1.15.19,2.33.41,3.53.65,1.2.24,2.3.62,3.31,1.15,1.01.53,1.82,1.25,2.45,2.16.62.91.94,2.14.94,3.67,0,1.44-.31,2.63-.94,3.56-.62.94-1.42,1.69-2.38,2.27-.96.58-2.05,1-3.28,1.26-1.22.26-2.41.44-3.56.54v.65c0,1.01-.02,2-.07,2.99-.05.98-.12,1.98-.22,2.99v.29c0,.29.14.43.43.43.33,0,.89-.17,1.66-.5.77-.33,1.61-.5,2.52-.5,1.68,0,3.11.56,4.28,1.69,1.18,1.13,1.76,2.53,1.76,4.21Z"/>
    <path d="m463.75,34.48c0,1.49-.26,2.86-.79,4.1-.53,1.25-1.26,2.33-2.2,3.24-.94.91-2.04,1.63-3.31,2.16-1.27.53-2.63.79-4.07.79-.86,0-1.6-.1-2.2-.29-.6-.19-1.12-.4-1.55-.61-.43-.22-.82-.42-1.15-.61-.34-.19-.67-.29-1.01-.29-.62,0-1,.19-1.12.58-.12.38-.18.82-.18,1.3v1.33c0,.31.02.64.07.97.91.1,1.84.24,2.77.43.94.19,1.79.52,2.56.97.77.46,1.39,1.06,1.87,1.8.48.74.72,1.69.72,2.84s-.24,2.03-.72,2.77c-.48.74-1.1,1.34-1.87,1.8-.77.46-1.63.79-2.59,1.01-.96.22-1.9.35-2.81.4-.05,1.44-.17,2.96-.36,4.57-.19,1.61-.58,3.1-1.15,4.46-.58,1.37-1.4,2.51-2.48,3.42-1.08.91-2.56,1.37-4.43,1.37s-3.46-.46-4.61-1.37c-1.15-.91-2.05-2.08-2.7-3.49-.65-1.42-1.09-2.94-1.33-4.57-.24-1.63-.43-3.17-.58-4.61-1.58-.29-2.98-.88-4.18-1.76-1.2-.89-1.8-2.22-1.8-4,0-1.63.53-2.92,1.58-3.85,1.06-.94,2.3-1.55,3.74-1.84-.05-.58-.07-1.14-.07-1.69v-1.69c0-3.22.34-6.18,1.01-8.89.67-2.71,1.76-5.04,3.28-6.98,1.51-1.94,3.48-3.46,5.9-4.54,2.42-1.08,5.39-1.62,8.89-1.62,1.87,0,3.8.24,5.8.72,1.99.48,3.8,1.22,5.44,2.23,1.63,1.01,2.98,2.29,4.03,3.85,1.06,1.56,1.58,3.42,1.58,5.58Z"/>
    <path d="m487.51,47.51c0,1.3-.02,2.87-.07,4.72-.05,1.85-.14,3.73-.29,5.65-.14,1.92-.38,3.77-.72,5.54-.34,1.78-.79,3.24-1.37,4.39-.82,1.63-1.9,2.9-3.24,3.82-1.34.91-2.93,1.37-4.75,1.37s-3.4-.46-4.72-1.37c-1.32-.91-2.39-2.18-3.2-3.82-.58-1.15-1.03-2.62-1.37-4.39-.34-1.77-.58-3.62-.72-5.54-.14-1.92-.24-3.8-.29-5.65-.05-1.85-.07-3.42-.07-4.72s.02-2.86.07-4.68c.05-1.82.14-3.7.29-5.62.14-1.92.38-3.77.72-5.54.34-1.77.79-3.24,1.37-4.39.82-1.68,1.88-2.96,3.2-3.85,1.32-.89,2.89-1.33,4.72-1.33s3.41.44,4.75,1.33c1.34.89,2.42,2.17,3.24,3.85.58,1.15,1.03,2.62,1.37,4.39.34,1.78.58,3.62.72,5.54.14,1.92.24,3.79.29,5.62.05,1.82.07,3.38.07,4.68Z"/>
    <path d="m513.29,55.14c0,.96-.02,1.99-.07,3.1-.05,1.1-.13,2.23-.25,3.38-.12,1.15-.3,2.26-.54,3.31-.24,1.06-.58,2.02-1.01,2.88-.82,1.54-1.93,2.78-3.35,3.74-1.42.96-3.01,1.44-4.79,1.44s-3.37-.48-4.79-1.44c-1.42-.96-2.53-2.21-3.35-3.74-.43-.86-.77-1.82-1.01-2.88-.24-1.06-.42-2.16-.54-3.31-.12-1.15-.21-2.28-.25-3.38-.05-1.1-.07-2.14-.07-3.1,0-.91.02-1.94.07-3.1.05-1.15.13-2.31.25-3.49.12-1.18.3-2.32.54-3.42.24-1.1.58-2.09,1.01-2.95.82-1.58,1.93-2.84,3.35-3.78,1.42-.94,3.01-1.4,4.79-1.4s3.37.47,4.79,1.4c1.42.94,2.53,2.2,3.35,3.78.43.86.77,1.85,1.01,2.95.24,1.1.42,2.24.54,3.42.12,1.18.2,2.34.25,3.49.05,1.15.07,2.19.07,3.1Zm-1.51-27.58c0,1.15-.23,2.24-.68,3.28-.46,1.03-1.07,1.93-1.84,2.7-.77.77-1.67,1.38-2.7,1.84-1.03.46-2.12.68-3.28.68s-2.24-.23-3.28-.68c-1.03-.46-1.93-1.07-2.7-1.84-.77-.77-1.38-1.67-1.84-2.7-.46-1.03-.68-2.12-.68-3.28s.23-2.26.68-3.31c.46-1.06,1.07-1.97,1.84-2.74s1.67-1.38,2.7-1.84c1.03-.46,2.12-.68,3.28-.68s2.24.23,3.28.68c1.03.46,1.93,1.07,2.7,1.84.77.77,1.38,1.68,1.84,2.74.46,1.06.68,2.16.68,3.31Z"/>
    <path d="m556.7,64.79c0,1.06-.22,2.08-.65,3.06-.43.98-1.01,1.86-1.73,2.63-.72.77-1.56,1.38-2.52,1.84-.96.46-1.97.68-3.02.68s-2.06-.24-3.17-.72c-1.1-.48-2.19-1.06-3.24-1.73-1.06-.67-2.08-1.4-3.06-2.2-.98-.79-1.84-1.52-2.56-2.2-.72.72-1.52,1.48-2.41,2.27-.89.79-1.84,1.52-2.84,2.2-1.01.67-2.05,1.24-3.13,1.69-1.08.46-2.15.68-3.2.68s-1.96-.2-2.84-.61c-.89-.41-1.66-.96-2.3-1.66-.65-.7-1.16-1.49-1.55-2.38-.38-.89-.58-1.84-.58-2.84,0-.91.16-1.8.47-2.66.31-.86.71-1.69,1.19-2.48.48-.79,1.02-1.55,1.62-2.27.6-.72,1.19-1.39,1.76-2.02-.67-.72-1.36-1.51-2.05-2.38-.7-.86-1.34-1.76-1.94-2.7-.6-.94-1.09-1.91-1.48-2.92-.38-1.01-.58-2.02-.58-3.02,0-1.1.22-2.15.65-3.13.43-.98,1.02-1.84,1.76-2.56.74-.72,1.61-1.3,2.59-1.73.98-.43,2.03-.65,3.13-.65.96,0,2,.24,3.13.72,1.13.48,2.24,1.07,3.35,1.76,1.1.7,2.15,1.44,3.13,2.23.98.79,1.84,1.5,2.56,2.12.72-.67,1.54-1.4,2.45-2.2.91-.79,1.87-1.54,2.88-2.23,1.01-.7,2.05-1.27,3.13-1.73,1.08-.46,2.12-.68,3.13-.68s1.96.2,2.84.61c.89.41,1.66.95,2.3,1.62.65.67,1.16,1.46,1.55,2.38.38.91.58,1.87.58,2.88,0,.91-.16,1.8-.47,2.66-.31.86-.72,1.7-1.22,2.52-.5.82-1.07,1.6-1.69,2.34-.62.74-1.22,1.43-1.8,2.05.62.72,1.27,1.5,1.94,2.34.67.84,1.3,1.72,1.87,2.63.58.91,1.06,1.86,1.44,2.84.38.98.58,1.96.58,2.92Z"/>
  </g>
  <g>
    <path d="m7,80.95c.33.36,3.72-2.45,6-3.95,14.28-9.4,30.36-10.58,37-11,4.84-.3,8.62-.14,11,0,23.89,1.4,45.36,8.56,66,14,26.07,6.87,40.94,10.67,61,10,19.17-.64,29.33-3.65,33-5,21.62-7.96,36.37-25.53,36-26-.11-.14-1.68,1.23-6,4-2.61,1.67-13.46,8.48-24,12-2.85.95-10.5,3.27-28,3-5.94-.09-23.49-.65-62-10-4.28-1.04-7.44-1.85-9.99-2.53-7.14-1.9-9.46-2.73-18.01-4.47-17.38-3.53-30.67-4.74-42-5-9.71-.22-14.57-.33-21,1,0,0-13.7,2.89-28,13-.75.53-3.71,2.65-7,6-1.64,1.67-4.31,4.6-4,4.95Z"/>
    <path d="m131.01,13.96c7.93.56,17.75,7.25,18.03,18.03.37,14.18-16.16,19.28-18.03,19.03-.08-.01-.48-.08-1,0-1.33.19-2.32,1.12-3.01,2v12.49s9,2.29,9,2.29l.02-7.77c.24,0,.59.01,1,0,8.59-.29,16.6-8.08,20.03-16.03,5.16-11.94-.48-23.06-1-24.04-5.16-9.76-15.42-14.91-25.04-15.03-1.23-.01-12.68.01-20.03,8.01-2.95,3.2-4.56,6.94-5.01,8.01-.48,1.14-1.83,4.54-2,9.02-.11,2.89.34,4.11,1,5.01.83,1.12,2.51,2.44,4.01,2,.98-.28,1.53-1.22,2-2,.65-1.07.82-2.02,1-3.01.31-1.67.75-3.32,1-5.01.55-3.66,3.62-7.67,7.01-10.02.57-.39,5.09-3.43,11.02-3.01Z"/>
  </g>
</svg>